<?xml version="1.0" encoding="utf-8"?>
<!-- Generator: Adobe Illustrator 15.0.0, SVG Export Plug-In . SVG Version: 6.00 Build 0)  -->
<!DOCTYPE svg PUBLIC "-//W3C//DTD SVG 1.1//EN" "http://www.w3.org/Graphics/SVG/1.1/DTD/svg11.dtd">
<svg version="1.1" id="Layer_1" xmlns="http://www.w3.org/2000/svg" xmlns:xlink="http://www.w3.org/1999/xlink" x="0px" y="0px"
	 width="64px" height="64px" viewBox="0 0 64 64" enable-background="new 0 0 64 64" xml:space="preserve">
<g>
	<path fill="#231F20" d="M25.43,31.372l0.219-0.205l0.218,0.207c1.933,1.82,4.069,2.821,6.016,2.821
		c2.044,0,4.155-0.889,6.106-2.568l0.161-0.14l0.43,0.208c0.36,0.333,1.01,0.806,1.302,0.95l0.404,0.194l-0.044,0.044l0.155,0.093
		c0.367,0.218,0.762,0.43,1.209,0.653c0.457,0.198,0.846,0.351,1.252,0.487c0.084,0.028,2.008,0.649,4.205,1.666l0.392,0.121
		c2.088,0.796,2.968,1.914,2.999,1.955c3.234,4.801,3.781,15.292,3.835,16.464c-0.025,1.644-0.491,2.063-0.615,2.147
		c-7.257,3.247-18.214,4.09-20.337,4.227l-0.059,0.003l-0.06-0.016c-0.071-0.025-0.146-0.034-0.236-0.034l0,0l-0.074,0.003
		c-0.58,0.04-1.061,0.06-1.508,0.06h-0.35c-1.324-0.078-13.139-0.855-20.705-4.221c-0.154-0.063-0.602-0.578-0.632-2.085
		c0.003-0.112,0.388-11.434,3.787-16.479c0.166-0.212,1.089-1.287,2.937-1.992c1.622-0.501,5.636-1.831,7.833-3.421
		c0.099-0.058,0.199-0.163,0.279-0.249C24.71,32.093,25.044,31.734,25.43,31.372z M30.756,3.288c0.125,0.001,1.688,0.197,4.044,0.92
		l1.625,0.558c2.965,0.876,4.345,2.517,4.6,2.845c2.381,2.702,1.746,6.778,1.153,8.967c-0.065,0.252-0.025,0.515,0.117,0.729
		l0.134,0.171c0.218,0.289,0.299,1.262-0.187,3.067c-0.099,0.589-0.316,1.066-0.64,1.384c-0.112,0.124-0.196,0.292-0.227,0.472
		c-0.806,4.722-5.035,10.005-9.494,10.005c-3.79,0-8.111-4.862-8.888-10.001c-0.028-0.187-0.108-0.354-0.239-0.498
		c-0.323-0.335-0.53-0.819-0.656-1.537c-0.375-1.352-0.413-2.439-0.116-2.892l0.076-0.087c0.295-0.214,0.438-0.55,0.382-0.894
		c-0.736-4.441-0.254-6.29-0.088-6.754c1.285-3.943,5.336-5.79,6.131-6.116c0.166-0.065,0.476-0.16,0.803-0.211l0.083-0.019
		l0.671-0.037L30.044,3.4l0.143-0.012"/>
</g>
</svg>
